<mxfile host="app.diagrams.net" modified="2023-03-13T22:26:55.790Z" agent="5.0 (Macintosh; Intel Mac OS X 10_15_7) AppleWebKit/537.36 (KHTML, like Gecko) Chrome/111.0.0.0 Safari/537.36" etag="AwnbQUQa1d4OldtBTUDh" version="20.8.20" type="github">
  <diagram name="Page-1" id="s69DwZbRv_0iMl6Fdg_1">
    <mxGraphModel dx="1076" dy="697" grid="1" gridSize="10" guides="1" tooltips="1" connect="1" arrows="1" fold="1" page="1" pageScale="1" pageWidth="827" pageHeight="1169" math="0" shadow="0">
      <root>
        <mxCell id="0" />
        <mxCell id="1" parent="0" />
        <mxCell id="LxmXxYNL-BxHpGxe1tcV-4" value="Profile&amp;nbsp; Table&lt;br&gt;" style="html=1;dashed=0;whitespace=wrap;shape=partialRectangle;right=0;left=0;fontSize=8;fillColor=#e1d5e7;strokeColor=#9673a6;" vertex="1" parent="1">
          <mxGeometry x="485" y="270" width="100" height="30" as="geometry" />
        </mxCell>
        <mxCell id="LxmXxYNL-BxHpGxe1tcV-6" value="User" style="html=1;dashed=0;whitespace=wrap;fontSize=12;fillColor=#f5f5f5;fontColor=#333333;strokeColor=#666666;" vertex="1" parent="1">
          <mxGeometry x="80" y="435" width="80" height="40" as="geometry" />
        </mxCell>
        <mxCell id="LxmXxYNL-BxHpGxe1tcV-7" value="&lt;font style=&quot;font-size: 9px;&quot;&gt;creates profile&lt;br&gt;(device)&lt;/font&gt;" style="shape=ellipse;html=1;dashed=0;whitespace=wrap;aspect=fixed;perimeter=ellipsePerimeter;fontSize=12;fillColor=#fff2cc;strokeColor=#d6b656;" vertex="1" parent="1">
          <mxGeometry x="310" y="250" width="70" height="70" as="geometry" />
        </mxCell>
        <mxCell id="LxmXxYNL-BxHpGxe1tcV-11" value="Review Table" style="html=1;dashed=0;whitespace=wrap;shape=partialRectangle;right=0;left=0;fontSize=9;fillColor=#e1d5e7;strokeColor=#9673a6;" vertex="1" parent="1">
          <mxGeometry x="650" y="650" width="100" height="30" as="geometry" />
        </mxCell>
        <mxCell id="LxmXxYNL-BxHpGxe1tcV-13" value="Profile&lt;br&gt;" style="html=1;dashed=0;whitespace=wrap;fontSize=9;fillColor=#f5f5f5;fontColor=#333333;strokeColor=#666666;" vertex="1" parent="1">
          <mxGeometry x="500" y="360" width="70" height="20" as="geometry" />
        </mxCell>
        <mxCell id="LxmXxYNL-BxHpGxe1tcV-16" value="&lt;font style=&quot;font-size: 8px;&quot;&gt;creates review&lt;br style=&quot;font-size: 8px;&quot;&gt;&lt;/font&gt;" style="shape=ellipse;html=1;dashed=0;whitespace=wrap;aspect=fixed;perimeter=ellipsePerimeter;fontSize=8;fillColor=#fff2cc;strokeColor=#d6b656;" vertex="1" parent="1">
          <mxGeometry x="320" y="635" width="60" height="60" as="geometry" />
        </mxCell>
        <mxCell id="LxmXxYNL-BxHpGxe1tcV-17" value="" style="endArrow=classic;html=1;rounded=0;fontSize=9;entryX=0;entryY=0.5;entryDx=0;entryDy=0;exitX=0.5;exitY=1;exitDx=0;exitDy=0;" edge="1" parent="1" source="LxmXxYNL-BxHpGxe1tcV-6" target="LxmXxYNL-BxHpGxe1tcV-16">
          <mxGeometry width="50" height="50" relative="1" as="geometry">
            <mxPoint x="160" y="457.5" as="sourcePoint" />
            <mxPoint x="380" y="322.5" as="targetPoint" />
          </mxGeometry>
        </mxCell>
        <mxCell id="LxmXxYNL-BxHpGxe1tcV-19" value="" style="endArrow=classic;html=1;rounded=0;fontSize=9;exitX=1;exitY=0.5;exitDx=0;exitDy=0;entryX=0;entryY=0.5;entryDx=0;entryDy=0;" edge="1" parent="1" source="LxmXxYNL-BxHpGxe1tcV-16" target="LxmXxYNL-BxHpGxe1tcV-11">
          <mxGeometry width="50" height="50" relative="1" as="geometry">
            <mxPoint x="414" y="495" as="sourcePoint" />
            <mxPoint x="610" y="285" as="targetPoint" />
          </mxGeometry>
        </mxCell>
        <mxCell id="LxmXxYNL-BxHpGxe1tcV-20" value="&lt;font style=&quot;font-size: 9px;&quot;&gt;&lt;br&gt;install app&lt;br&gt;&lt;br&gt;&lt;/font&gt;" style="shape=ellipse;html=1;dashed=0;whitespace=wrap;aspect=fixed;perimeter=ellipsePerimeter;fontSize=12;fillColor=#fff2cc;strokeColor=#d6b656;" vertex="1" parent="1">
          <mxGeometry x="320" y="415" width="60" height="60" as="geometry" />
        </mxCell>
        <mxCell id="LxmXxYNL-BxHpGxe1tcV-21" value="Application" style="html=1;dashed=0;whitespace=wrap;shape=partialRectangle;right=0;left=0;fontSize=9;fillColor=#e1d5e7;strokeColor=#9673a6;" vertex="1" parent="1">
          <mxGeometry x="650" y="430" width="100" height="30" as="geometry" />
        </mxCell>
        <mxCell id="LxmXxYNL-BxHpGxe1tcV-22" value="User App Catalogue" style="html=1;dashed=0;whitespace=wrap;shape=partialRectangle;right=0;left=0;fontSize=9;fillColor=#e1d5e7;strokeColor=#9673a6;" vertex="1" parent="1">
          <mxGeometry x="485" y="430" width="100" height="30" as="geometry" />
        </mxCell>
        <mxCell id="LxmXxYNL-BxHpGxe1tcV-23" value="Subscription table" style="html=1;dashed=0;whitespace=wrap;shape=partialRectangle;right=0;left=0;fontSize=9;fillColor=#e1d5e7;strokeColor=#9673a6;" vertex="1" parent="1">
          <mxGeometry x="650" y="520" width="100" height="30" as="geometry" />
        </mxCell>
        <mxCell id="LxmXxYNL-BxHpGxe1tcV-24" value="Payment Table" style="html=1;dashed=0;whitespace=wrap;shape=partialRectangle;right=0;left=0;fontSize=9;fillColor=#e1d5e7;strokeColor=#9673a6;" vertex="1" parent="1">
          <mxGeometry x="485" y="590" width="100" height="30" as="geometry" />
        </mxCell>
        <mxCell id="LxmXxYNL-BxHpGxe1tcV-25" value="&lt;font style=&quot;font-size: 8px;&quot;&gt;Subscribes&lt;br style=&quot;font-size: 8px;&quot;&gt;&lt;/font&gt;" style="shape=ellipse;html=1;dashed=0;whitespace=wrap;aspect=fixed;perimeter=ellipsePerimeter;fontSize=8;fillColor=#fff2cc;strokeColor=#d6b656;" vertex="1" parent="1">
          <mxGeometry x="507.5" y="495" width="55" height="55" as="geometry" />
        </mxCell>
        <mxCell id="LxmXxYNL-BxHpGxe1tcV-27" value="" style="endArrow=classic;html=1;rounded=0;fontSize=8;exitX=1;exitY=0.5;exitDx=0;exitDy=0;entryX=0;entryY=0.5;entryDx=0;entryDy=0;" edge="1" parent="1" source="LxmXxYNL-BxHpGxe1tcV-20" target="LxmXxYNL-BxHpGxe1tcV-22">
          <mxGeometry width="50" height="50" relative="1" as="geometry">
            <mxPoint x="400" y="530" as="sourcePoint" />
            <mxPoint x="480" y="450" as="targetPoint" />
          </mxGeometry>
        </mxCell>
        <mxCell id="LxmXxYNL-BxHpGxe1tcV-29" value="" style="endArrow=classic;html=1;fontSize=8;entryX=0;entryY=0.5;entryDx=0;entryDy=0;exitX=0.5;exitY=1;exitDx=0;exitDy=0;curved=1;" edge="1" parent="1" source="LxmXxYNL-BxHpGxe1tcV-20" target="LxmXxYNL-BxHpGxe1tcV-25">
          <mxGeometry width="50" height="50" relative="1" as="geometry">
            <mxPoint x="170" y="460" as="sourcePoint" />
            <mxPoint x="330" y="460" as="targetPoint" />
            <Array as="points">
              <mxPoint x="330" y="540" />
              <mxPoint x="420" y="523" />
            </Array>
          </mxGeometry>
        </mxCell>
        <mxCell id="LxmXxYNL-BxHpGxe1tcV-33" value="" style="endArrow=classic;rounded=1;fontSize=8;exitX=1;exitY=0.5;exitDx=0;exitDy=0;entryX=1;entryY=0.5;entryDx=0;entryDy=0;html=1;" edge="1" parent="1" source="LxmXxYNL-BxHpGxe1tcV-11" target="LxmXxYNL-BxHpGxe1tcV-21">
          <mxGeometry width="50" height="50" relative="1" as="geometry">
            <mxPoint x="750" y="660" as="sourcePoint" />
            <mxPoint x="800" y="610" as="targetPoint" />
            <Array as="points">
              <mxPoint x="790" y="665" />
              <mxPoint x="790" y="590" />
              <mxPoint x="790" y="445" />
            </Array>
          </mxGeometry>
        </mxCell>
        <mxCell id="LxmXxYNL-BxHpGxe1tcV-34" value="" style="endArrow=classic;html=1;rounded=0;fontSize=8;exitX=1;exitY=0.5;exitDx=0;exitDy=0;entryX=0;entryY=0.5;entryDx=0;entryDy=0;" edge="1" parent="1" source="LxmXxYNL-BxHpGxe1tcV-25" target="LxmXxYNL-BxHpGxe1tcV-23">
          <mxGeometry width="50" height="50" relative="1" as="geometry">
            <mxPoint x="630" y="560" as="sourcePoint" />
            <mxPoint x="680" y="510" as="targetPoint" />
          </mxGeometry>
        </mxCell>
        <mxCell id="LxmXxYNL-BxHpGxe1tcV-40" value="Search&lt;br&gt;in app store" style="endArrow=classic;html=1;fontSize=8;curved=1;exitX=1;exitY=0.5;exitDx=0;exitDy=0;entryX=0;entryY=0.5;entryDx=0;entryDy=0;" edge="1" parent="1" source="LxmXxYNL-BxHpGxe1tcV-6" target="LxmXxYNL-BxHpGxe1tcV-20">
          <mxGeometry relative="1" as="geometry">
            <mxPoint x="140" y="604.6" as="sourcePoint" />
            <mxPoint x="240" y="604.6" as="targetPoint" />
          </mxGeometry>
        </mxCell>
        <mxCell id="LxmXxYNL-BxHpGxe1tcV-43" value="Login / Sign up" style="endArrow=classic;html=1;fontSize=8;curved=1;exitX=0.5;exitY=0;exitDx=0;exitDy=0;entryX=0;entryY=0.5;entryDx=0;entryDy=0;" edge="1" parent="1" source="LxmXxYNL-BxHpGxe1tcV-6" target="LxmXxYNL-BxHpGxe1tcV-7">
          <mxGeometry x="-0.002" relative="1" as="geometry">
            <mxPoint x="170" y="465" as="sourcePoint" />
            <mxPoint x="330" y="455" as="targetPoint" />
            <mxPoint as="offset" />
          </mxGeometry>
        </mxCell>
        <mxCell id="LxmXxYNL-BxHpGxe1tcV-44" value="" style="endArrow=classic;html=1;fontSize=8;curved=1;exitX=1;exitY=0.5;exitDx=0;exitDy=0;entryX=0;entryY=0.5;entryDx=0;entryDy=0;" edge="1" parent="1" source="LxmXxYNL-BxHpGxe1tcV-7" target="LxmXxYNL-BxHpGxe1tcV-4">
          <mxGeometry relative="1" as="geometry">
            <mxPoint x="390" y="240" as="sourcePoint" />
            <mxPoint x="490" y="240" as="targetPoint" />
          </mxGeometry>
        </mxCell>
        <mxCell id="LxmXxYNL-BxHpGxe1tcV-45" value="Stores data" style="edgeLabel;resizable=0;html=1;align=center;verticalAlign=middle;fontSize=8;fillColor=#FFFFFF;" connectable="0" vertex="1" parent="LxmXxYNL-BxHpGxe1tcV-44">
          <mxGeometry relative="1" as="geometry" />
        </mxCell>
        <mxCell id="LxmXxYNL-BxHpGxe1tcV-46" value="" style="endArrow=classic;html=1;fontSize=8;curved=1;exitX=0.5;exitY=1;exitDx=0;exitDy=0;entryX=0.5;entryY=0;entryDx=0;entryDy=0;" edge="1" parent="1" source="LxmXxYNL-BxHpGxe1tcV-4" target="LxmXxYNL-BxHpGxe1tcV-13">
          <mxGeometry relative="1" as="geometry">
            <mxPoint x="585" y="320" as="sourcePoint" />
            <mxPoint x="685" y="320" as="targetPoint" />
          </mxGeometry>
        </mxCell>
        <mxCell id="LxmXxYNL-BxHpGxe1tcV-47" value="Profile details" style="edgeLabel;resizable=0;html=1;align=center;verticalAlign=middle;fontSize=8;fillColor=#FFFFFF;" connectable="0" vertex="1" parent="LxmXxYNL-BxHpGxe1tcV-46">
          <mxGeometry relative="1" as="geometry" />
        </mxCell>
        <mxCell id="LxmXxYNL-BxHpGxe1tcV-48" value="" style="endArrow=classic;html=1;fontSize=8;curved=1;exitX=0.5;exitY=1;exitDx=0;exitDy=0;entryX=0.5;entryY=0;entryDx=0;entryDy=0;" edge="1" parent="1" source="LxmXxYNL-BxHpGxe1tcV-13" target="LxmXxYNL-BxHpGxe1tcV-22">
          <mxGeometry relative="1" as="geometry">
            <mxPoint x="534.6" y="375" as="sourcePoint" />
            <mxPoint x="534.6" y="435" as="targetPoint" />
          </mxGeometry>
        </mxCell>
        <mxCell id="LxmXxYNL-BxHpGxe1tcV-49" value="contains&amp;nbsp;" style="edgeLabel;resizable=0;html=1;align=center;verticalAlign=middle;fontSize=8;fillColor=#FFFFFF;" connectable="0" vertex="1" parent="LxmXxYNL-BxHpGxe1tcV-48">
          <mxGeometry relative="1" as="geometry">
            <mxPoint as="offset" />
          </mxGeometry>
        </mxCell>
        <mxCell id="LxmXxYNL-BxHpGxe1tcV-50" value="" style="endArrow=classic;html=1;fontSize=8;curved=1;exitX=0;exitY=0.5;exitDx=0;exitDy=0;entryX=1;entryY=0.5;entryDx=0;entryDy=0;" edge="1" parent="1" source="LxmXxYNL-BxHpGxe1tcV-21" target="LxmXxYNL-BxHpGxe1tcV-22">
          <mxGeometry relative="1" as="geometry">
            <mxPoint x="600" y="380" as="sourcePoint" />
            <mxPoint x="700" y="380" as="targetPoint" />
          </mxGeometry>
        </mxCell>
        <mxCell id="LxmXxYNL-BxHpGxe1tcV-51" value="app details" style="edgeLabel;resizable=0;html=1;align=center;verticalAlign=middle;fontSize=8;fillColor=#FFFFFF;" connectable="0" vertex="1" parent="LxmXxYNL-BxHpGxe1tcV-50">
          <mxGeometry relative="1" as="geometry">
            <mxPoint x="-2" as="offset" />
          </mxGeometry>
        </mxCell>
        <mxCell id="LxmXxYNL-BxHpGxe1tcV-52" value="" style="endArrow=classic;html=1;fontSize=8;curved=1;exitX=0.5;exitY=1;exitDx=0;exitDy=0;entryX=0.5;entryY=0;entryDx=0;entryDy=0;" edge="1" parent="1" source="LxmXxYNL-BxHpGxe1tcV-21" target="LxmXxYNL-BxHpGxe1tcV-23">
          <mxGeometry relative="1" as="geometry">
            <mxPoint x="590" y="500" as="sourcePoint" />
            <mxPoint x="690" y="500" as="targetPoint" />
          </mxGeometry>
        </mxCell>
        <mxCell id="LxmXxYNL-BxHpGxe1tcV-53" value="Subscription details" style="edgeLabel;resizable=0;html=1;align=center;verticalAlign=middle;fontSize=8;fillColor=#FFFFFF;" connectable="0" vertex="1" parent="LxmXxYNL-BxHpGxe1tcV-52">
          <mxGeometry relative="1" as="geometry" />
        </mxCell>
        <mxCell id="LxmXxYNL-BxHpGxe1tcV-56" value="" style="endArrow=classic;html=1;rounded=0;fontSize=8;exitX=0.578;exitY=-0.1;exitDx=0;exitDy=0;exitPerimeter=0;entryX=0.758;entryY=0.975;entryDx=0;entryDy=0;entryPerimeter=0;" edge="1" parent="1" source="LxmXxYNL-BxHpGxe1tcV-24" target="LxmXxYNL-BxHpGxe1tcV-25">
          <mxGeometry width="50" height="50" relative="1" as="geometry">
            <mxPoint x="540" y="570" as="sourcePoint" />
            <mxPoint x="550" y="550" as="targetPoint" />
          </mxGeometry>
        </mxCell>
        <mxCell id="LxmXxYNL-BxHpGxe1tcV-54" value="df" style="endArrow=classic;html=1;fontSize=8;exitX=0.5;exitY=1;exitDx=0;exitDy=0;entryX=0.45;entryY=0;entryDx=0;entryDy=0;entryPerimeter=0;rounded=0;" edge="1" parent="1" source="LxmXxYNL-BxHpGxe1tcV-25" target="LxmXxYNL-BxHpGxe1tcV-24">
          <mxGeometry relative="1" as="geometry">
            <mxPoint x="600" y="520" as="sourcePoint" />
            <mxPoint x="700" y="520" as="targetPoint" />
          </mxGeometry>
        </mxCell>
        <mxCell id="LxmXxYNL-BxHpGxe1tcV-55" value="Payment details" style="edgeLabel;resizable=0;html=1;align=center;verticalAlign=middle;fontSize=8;fillColor=#FFFFFF;" connectable="0" vertex="1" parent="LxmXxYNL-BxHpGxe1tcV-54">
          <mxGeometry relative="1" as="geometry">
            <mxPoint x="-1" as="offset" />
          </mxGeometry>
        </mxCell>
      </root>
    </mxGraphModel>
  </diagram>
</mxfile>
